<svg
    xmlns="http://www.w3.org/2000/svg"
    xmlns:xlink="http://www.w3.org/1999/xlink"
    viewBox="0 0 576 475"
    width="576px"
    height="475px"
>
    
    <defs>
        <g id="ikon">
            <g id="hexapoid">
                <path d=" M 55 386 C 43 280 38 181 42 89 L 215 11 L 322 44 L 405 120 C 381 170 360 229 344 296 C 374 322 421 335 485 335 L 438 360 L 334 441 L 216 468 C 187 446 133 418 55 386 Z " fill="var(--body-color, #f90)"/>
                <path d=" M 258 138 L 257 180 L 277 191 L 305 178 L 312 133 L 296 115 L 258 138 Z " fill="var(--hexapoid-color, #ea4)"/>
                <path d=" M 157 364 C 143 291 142 211 152 123 C 210 102 267 76 323 46 L 209 11 C 161 37 104 62 38 86 C 34 192 40 293 56 390 C 121 413 171 437 206 464 L 327 446 L 440 357 L 487 335 C 452 338 423 335 399 327 Q 314 345 225 392 L 157 364 Z  M 296 117 L 312 134 L 304 180 L 293 185 L 297 139 L 282 127 L 296 117 Z " opacity="0.25" fill-rule="evenodd" fill="var(--outline-color, #000)"/>
                <path d=" M 263 140 L 261 180 L 276 188 L 299 177 L 306 131 L 306 131 C 301 129 297 125 294 121 C 285 129 274 135 263 140 Z  M 254 142 L 252 181 L 278 195 L 309 182 L 316 136 C 319 137 322 138 326 138 C 313 131 305 124 300 116 C 307 109 313 102 318 94 C 291 117 261 134 227 147 C 236 146 245 145 254 142 Z  M 266 415 C 264 414 263 414 261 413 L 261 413 L 261 413 L 261 413 C 237 418 213 425 188 436 C 189 437 190 438 191 438 C 215 429 240 421 266 415 L 266 415 L 266 415 L 266 415 L 266 415 L 266 415 Z  M 182 379 C 189 382 196 384 202 387 L 202 387 L 132 408 C 125 405 119 402 111 399 L 182 379 L 182 379 L 182 379 L 182 379 L 182 379 L 182 379 L 182 379 Z  M 176 377 C 167 374 159 370 150 367 L 150 367 L 74 383 C 84 387 94 391 104 395 L 176 377 L 176 377 L 176 377 L 176 377 L 176 377 L 176 377 L 176 377 Z  M 220 394 C 224 396 228 398 232 399 L 232 399 L 159 421 C 157 419 154 418 151 417 C 175 407 198 399 220 394 L 220 394 L 220 394 L 220 394 L 220 394 L 220 394 L 220 394 L 220 394 Z  M 149 363 C 138 281 137 201 147 122 L 147 122 L 72 97 L 153 116 C 208 99 262 76 308 48 L 308 48 C 275 39 243 30 214 20 L 214 20 C 168 43 114 67 51 90 C 47 136 46 194 49 251 L 49 251 L 108 234 L 115 235 L 105 238 L 105 238 L 50 271 C 51 274 51 277 51 281 L 109 263 L 117 267 L 52 286 L 52 286 C 55 319 59 351 66 380 L 149 363 L 149 363 L 149 363 L 149 363 L 149 363 L 149 363 L 149 363 L 149 363 L 149 363 L 149 363 Z  M 81 246 L 49 255 C 50 259 50 263 50 268 L 81 246 L 81 246 L 81 246 L 81 246 L 81 246 L 81 246 L 81 246 L 81 246 L 81 246 L 81 246 L 81 246 L 81 246 L 81 246 Z  M 336 289 C 350 227 371 170 397 119 L 320 53 L 320 53 L 320 53 L 320 53 L 320 53 L 320 53 L 320 53 L 320 53 C 268 81 212 106 160 123 C 146 205 147 284 162 360 C 213 381 267 404 321 431 Q 386 378 471 339 C 426 342 382 330 339 303 L 237 307 L 329 295 L 329 295 L 267 284 L 336 289 L 336 289 L 336 289 L 336 289 Z  M 358 302 L 358 302 C 394 323 444 331 507 327 C 448 358 387 399 333 449 C 293 451 252 460 215 475 C 170 444 112 416 47 393 C 41 363 36 328 33 292 L 33 292 L 8 299 L 2 295 L 33 286 C 33 285 33 283 33 282 L 19 290 L 33 280 L 33 280 L 33 280 L 33 280 L 33 280 L 33 280 L 33 280 L 33 280 L 33 280 C 32 274 32 267 31 261 L 6 268 L 2 265 L 31 257 L 31 257 C 28 196 28 133 29 80 C 90 60 151 33 212 0 L 212 0 C 254 15 294 27 330 34 L 415 116 C 386 169 366 228 354 291 L 362 291 L 358 302 L 358 302 L 358 302 L 358 302 Z " fill-rule="evenodd" fill="var(--outline-color, #000)"/>
            </g>
            
            <g id="fone">
                <path d=" M 505 390 L 520 209 Q 472 185 454 184 C 447 183 423 182 420 199 C 417 209 419 324 425 381 C 426 391 433 391 444 392 L 488 397 C 498 398 504 395 505 390 Z " fill="var(--outline-color, #000)"/>
                <path d=" M 448 225 L 443 366 C 444 375 446 381 451 382 L 494 389 C 497 389 498 385 499 381 L 514 222 C 515 218 514 215 512 213 C 449 181 450 197 448 225 Z " fill="var(--fone-color, #444)"/>
                <path d=" M 478 224 C 479 217 482 211 486 211 C 490 211 493 217 492 225 C 492 232 488 238 484 238 C 481 238 478 231 478 224 Z " fill="var(--outline-color, #000)"/>
                <path d=" M 482 224 C 482 219 484 214 486 214 C 488 215 490 219 489 225 C 489 230 487 234 485 234 C 483 234 481 230 482 224 Z " fill="var(--cam-color, #777)"/>
                </g>
            
            <g id="hand">
                <path d=" M 465 258 C 464 310 477 344 503 362 L 510 312 L 465 258 Z " opacity="0.25" fill="rgb(0,0,0)"/>
                <path d=" M 529 198 C 510 213 490 234 469 259 C 496 285 530 298 569 300 L 538 258 L 529 198 Z " fill="var(--body-color, #f90)"/>
                <path d=" M 505 332 Q 540 314 578 303 L 543 252 C 538 234 535 212 533 185 C 506 207 484 231 465 256 Q 479 299 507 316 L 505 332 Z  M 527 209 C 509 222 491 238 481 255 C 500 273 528 286 557 295 L 532 258 C 528 242 526 226 527 209 Z " fill-rule="evenodd" fill="var(--outline-color, #000)"/>
                <path d=" M 514 248 Q 531 256 539 268 L 535 253 Q 526 252 514 248 Z " fill="var(--outline-color, #000)"/>
            </g>
        </g>
    </defs>
    
    <g>
        <title>
            #ikon
            --body-color
            --outline-color
            --hexapoid-color
            --fone-color
        </title>
        <use xlink:href="#ikon"/>
    </g>
        
</svg>