<svg xmlns="http://www.w3.org/2000/svg" xmlns:xlink="http://www.w3.org/1999/xlink" viewBox="0 0 573 445">
    
    <g id="#ikon">
        <path d=" M 16 90.628 C 51.637 211.876 59.946 297.731 65.789 393.407 L 93.931 395 L 100.425 436 L 232.475 436 L 549.61 436 C 561.238 417.984 567.519 395.498 568.483 368.513 L 408.902 365.878 C 413.326 260.996 409.007 161.68 395.913 67.898 C 311.81 41.45 193.492 15.112 64.707 7 C 50.031 36.729 33.806 67.502 16 90.628 Z " fill="var(--blackness)"/>
        
        <path d=" M 34.4 91.425 C 47.546 74.924 58.381 51.377 66.872 29.412 C 183.722 28.494 293.241 55.65 375.348 87.096 C 388.914 168.938 394.336 258.786 391.584 356.607 L 549 379.336 C 547.977 394.753 544.562 408.113 538.786 419.384 L 216.239 419.384 L 117.743 419.384 L 108.002 358.771 L 81.484 365.041 C 69.073 276.606 67.1 195.514 34.4 91.425 Z " fill="var(--darkness)"/>
        
        <path d=" M 113.414 63.283 C 202.787 67.124 285.058 90.586 360.195 109.825 C 368.474 195.948 371.732 275.693 369.936 349.03 L 214.074 327.383 L 180.521 336.042 L 138.308 328.465 C 138.586 250.841 129.91 154.94 113.414 63.283 Z " fill="var(--lightness)"/>
    
        <path d=" M 66.872 16.657 C 184.949 26.701 290.612 50.492 389 82 L 399.416 351.032 L 562 374 L 549 426.961 L 203 428.043 C 221.446 376.641 215.847 366.98 210.827 326.3 L 114.496 355.524 C 113.991 228.237 89.941 98.143 66.872 16.657 Z " opacity="0.35" fill="var(--blackness)"/>
        
    
        <path d=" M 61.46 22.946 C 79.402 78.546 95.03 160.05 107.591 243.635 C 103.041 160.82 89.02 78.864 73.009 18.906 L 61.46 22.946 Z " fill="var(--blackness)"/>
    
        <path d=" M 211.91 319.388 L 568.483 368.513 L 549 380.728 L 222.733 337.124 C 220.928 359 217.682 378.504 212.992 395.572 C 214.185 371.94 213.104 350.674 209.745 331.712 L 138.308 348.033" fill="var(--blackness)"/>
    
        <path d=" M 129.03 395 L 128.133 381.487 L 154 375 L 154 393.407 L 129.03 395 Z " fill="var(--blackness)"/>
    
        <path d=" M 131.128 212.528 C 145.024 177.5 167.05 149.468 197.168 128.407 C 193.839 162.751 197.03 190.667 206.704 212.132 C 221.067 181.719 241.414 154.251 267.707 129.702 C 272.335 159.32 281.862 226.597 278.072 253.976 C 297.413 230.044 309.297 168.281 364.516 147.444 C 315.83 164.664 298.029 248.471 269.703 283.375 C 273.124 242.854 261.861 172.551 256.225 156.468 C 240.366 169.907 221.453 195.582 199.448 233.469 C 190.361 200.523 188.469 173.512 193.735 152.413 C 179.112 151.286 158.256 171.333 131.128 212.528 Z " fill="var(--blackness)" fill-opacity="0.38"/>
    
        <path d=" M 108.002 55.992 C 202.387 54.45 294.334 77.496 365.607 104.414 C 376.381 162.318 379.639 248.557 379.677 350.112 L 360.195 347.948 C 366.865 272.171 362.185 195.333 352.618 117.402 C 350.098 116.657 347.579 115.911 345.061 115.166 C 283.41 92.788 198.436 71.762 116.661 71.942 C 132.515 156.659 143.349 244.822 146.967 325.218 L 201.086 330.63 L 180.521 337.124 L 132.896 332.794 C 132.948 247.547 124.661 147.353 108.002 55.992 Z " fill="var(--blackness)"/>
    
        <path d=" M 154 393.407 L 154 381.487 L 136.655 385.448 L 137 394.484 L 154 393.407 Z " fill="var(--midness)"/>
</g>
</svg>