<svg
 xmlns="http://www.w3.org/2000/svg"
 xmlns:xlink="http://www.w3.org/1999/xlink"
 
 viewBox="0 0 600 600"
 height="672px"
 width="600px"
>
    <defs>
        <g id="ikon">
            
        <path d=" M 28 90 L 65 25 Q 200 20 390 75 L 400 355 L 555 375 L 549 425 H 110 L 99 370 L 73 380 Q 57 200 28 90 Z " fill="var(--body-color, #888)"/>
        
        <path d=" M 66 16 C 184 26 290 50 389 82 L 399 351 L 562 374 L 549 426 L 203 428 C 221 376 215 366 210 326 L 114 355 C 113 228 89 98 66 16 Z M 154 393 L 154 381 L 136 385 L 137 394 L 154 393 Z" opacity="0.35" fill="var(--outline-color, #000)"/>
    
        <path d=" M 113 63 C 202 67 285 90 360 109 C 368 195 371 275 369 349 L 214 327 L 180 336 L 138 328 C 138 250 129 154 113 63 Z " fill="var(--screen-color, #eee)"/>
    
        <path d=" M 131 212 C 145 177 167 149 197 128 C 193 162 197 190 206 212 C 221 181 241 154 267 129 C 272 159 281 226 278 253 C 297 230 309 168 364 147 C 315 164 298 248 269 283 C 273 242 261 172 256 156 C 240 169 221 195 199 233 C 190 200 188 173 193 152 C 179 151 158 171 131 212 Z " fill="var(--outline-color, #000)" fill-opacity="0.35"/>
    
        <path d=" M 16 90 C 51 211 59 297 65 393 L 93 395 L 100 436 H 549 C 561 417 567 395 568 368 L 408 347 C 413 260 409 161 395 67 C 311 41 193 15 64 7 C 50 36 33 67 16 90 Z M 34 91 C 47 74 58 51 66 29 C 183 28 293 55 375 87 C 388 168 394 258 391 356 L 549 379 C 547 394 544 408 538 419 L 216 419 L 117 419 L 108 358 L 81 365 C 69 276 67 195 34 91 Z " fill="var(--outline-color, #000)"/>
        
        <path d=" M 61 22 C 79 78 95 160 107 243 C 103 160 89 78 73 18 L 61 22 Z  M 211 319 L 568 368 L 549 380 L 222 337 C 220 359 217 378 212 395 C 214 371 213 350 209 331 L 138 348 Z  M 129 395 L 128 381 L 154 375 V 382 L 137 385 V 395 Z  M 108 55 C 202 54 294 77 365 104 C 376 162 379 248 379 350 L 360 347 C 366 272 362 195 352 117 C 350 116 347 115 345 115 C 283 92 198 71 116 71 C 132 156 143 244 146 325 L 201 330 L 180 337 L 132 332 C 132 247 124 147 108 55 Z " fill="var(--outline-color, #000)"/>
        
        </g>
    </defs>
    
    <g>
        <title>
    #ikon :::

    --body-color : [color];
    --screen-color : [color];
    --outline-color : [color];

    ~queviva
        </title>
        
        <use xlink:href="#ikon" />
    </g>
</svg>
