<svg
 xmlns="http://www.w3.org/2000/svg"
 xmlns:xlink="http://www.w3.org/1999/xlink"
 
 viewBox="-80 -30 160 30"
 height="672px"
 width="600px"
>
    <defs>
        <g id="ikon">
        <path d=" M 16 90.6 C 51.6 211.8 59.9 297.7 65.7 393.4 L 93.9 395 L 100.4 436 L 232.4 436 L 549.6 436 C 561.2 417.9 567.5 395.4 568.4 368.5 L 408.9 365.8 C 413.3 260.9 409.0 161.6 395.9 67.8 C 311.8 41.4 193.4 15.1 64.7 7 C 50.0 36.7 33.8 67.5 16 90.6 Z " fill="var(--outline-color)"/>
        
        <path d=" M 34.4 91.4 C 47.5 74.9 58.3 51.3 66.8 29.4 C 183.7 28.4 293.2 55.6 375.3 87.0 C 388.9 168.9 394.3 258.7 391.5 356.6 L 549 379.3 C 547.9 394.7 544.5 408.1 538.7 419.3 L 216.2 419.3 L 117.7 419.3 L 108.0 358.7 L 81.4 365.0 C 69.0 276.6 67.1 195.5 34.4 91.4 Z " fill="var(--body-color)"/>
        
        <path d=" M 113.4 63.2 C 202.7 67.1 285.0 90.5 360.1 109.8 C 368.4 195.9 371.7 275.6 369.9 349.0 L 214.0 327.3 L 180.5 336.0 L 138.3 328.4 C 138.5 250.8 129.9 154.9 113.4 63.2 Z " fill="var(--screen-color)"/>
    
        <path d=" M 66.8 16.6 C 184.9 26.7 290.6 50.4 389 82 L 399.4 351.0 L 562 374 L 549 426.9 L 203 428.0 C 221.4 376.6 215.8 366.9 210.8 326.3 L 114.4 355.5 C 113.9 228.2 89.9 98.1 66.8 16.6 Z
        " opacity="0.35" fill="var(--outline-color)"/>
        
    
        <path d=" M 61.4 22.9 C 79.4 78.5 95.0 160.0 107.5 243.6 C 103.0 160.8 89.0 78.8 73.0 18.9 L 61.4 22.9 Z " fill="var(--outline-color)"/>
    
        <path d=" M 211.9 319.3 L 568.4 368.5 L 549 380.7 L 222.7 337.1 C 220.9 359 217.6 378.5 212.9 395.5 C 214.1 371.9 213.1 350.6 209.7 331.7 L 138.3 348.0 Z M 129.0 395 L 128.1 381.4 L 154 375 L 154 393.4 L 129.0 395 Z " fill="var(--outline-color)"/>
    
        <path d=" M 131.1 212.5 C 145.0 177.5 167.0 149.4 197.1 128.4 C 193.8 162.7 197.0 190.6 206.7 212.1 C 221.0 181.7 241.4 154.2 267.7 129.7 C 272.3 159.3 281.8 226.5 278.0 253.9 C 297.4 230.0 309.2 168.2 364.5 147.4 C 315.8 164.6 298.0 248.4 269.7 283.3 C 273.1 242.8 261.8 172.5 256.2 156.4 C 240.3 169.9 221.4 195.5 199.4 233.4 C 190.3 200.5 188.4 173.5 193.7 152.4 C 179.1 151.2 158.2 171.3 131.1 212.5 Z " fill="var(--outline-color)" fill-opacity="0.38"/>
    
        <path d=" M 108.0 55.9 C 202.3 54.4 294.3 77.4 365.6 104.4 C 376.3 162.3 379.6 248.5 379.6 350.1 L 360.1 347.9 C 366.8 272.1 362.1 195.3 352.6 117.4 C 350.0 116.6 347.5 115.9 345.0 115.1 C 283.4 92.7 198.4 71.7 116.6 71.9 C 132.5 156.6 143.3 244.8 146.9 325.2 L 201.0 330.6 L 180.5 337.1 L 132.8 332.7 C 132.9 247.5 124.6 147.3 108.0 55.9 Z " fill="var(--outline-color)"/>
    
        <path d=" M 154 393.4 L 154 381.4 L 136.6 385.4 L 137 394.4 L 154 393.4 Z " fill="var(--body-color)"/>
        
        <path d=" M 154 393.4 L 154 381.4 L 136.6 385.4 L 137 394.4 L 154 393.4 Z " opacity="0.5" fill="var(--outline-color)"/>
        
        
        
        </g>
    </defs>
    
    <g>
        <title>
    #ikon :::

    --body-color : [color];
    --screen-color : [color];
    --outline-color : [color];

    ~queviva
        </title>
        
        <use xlink:href="#ikon" />
    </g>
</svg>
